<svg width="120" height="120" viewBox="0 0 120 120" fill="none" xmlns="http://www.w3.org/2000/svg">
  <rect width="120" height="120" rx="24" fill="#3B82F6"/>
  <g filter="url(#filter0_d)">
    <path d="M60 30C43.4315 30 30 43.4315 30 60C30 76.5685 43.4315 90 60 90C76.5685 90 90 76.5685 90 60C90 43.4315 76.5685 30 60 30ZM60 40C65.5228 40 70 44.4772 70 50C70 55.5228 65.5228 60 60 60C54.4772 60 50 55.5228 50 50C50 44.4772 54.4772 40 60 40ZM60 84C51.7157 84 44.5714 79.5143 40.8571 72.8571C40.9429 66.4286 53.5714 63 60 63C66.4286 63 79.0571 66.4286 79.1429 72.8571C75.4286 79.5143 68.2843 84 60 84Z" fill="white"/>
  </g>
  <circle cx="60" cy="50" r="15" fill="#38BDF8" fill-opacity="0.8"/>
  <defs>
    <filter id="filter0_d" x="26" y="28" width="68" height="68" filterUnits="userSpaceOnUse" color-interpolation-filters="sRGB">
      <feFlood flood-opacity="0" result="BackgroundImageFix"/>
      <feColorMatrix in="SourceAlpha" type="matrix" values="0 0 0 0 0 0 0 0 0 0 0 0 0 0 0 0 0 0 127 0"/>
      <feOffset dy="2"/>
      <feGaussianBlur stdDeviation="2"/>
      <feColorMatrix type="matrix" values="0 0 0 0 0 0 0 0 0 0 0 0 0 0 0 0 0 0 0.25 0"/>
      <feBlend mode="normal" in2="BackgroundImageFix" result="effect1_dropShadow"/>
      <feBlend mode="normal" in="SourceGraphic" in2="effect1_dropShadow" result="shape"/>
    </filter>
  </defs>
</svg> 